# xmcd
#
# Track frame offsets: 
#        150
#        9442
#        23755
#        37984
#        48492
#        60075
#        74265
#        85927
#        100537
#        110579
#        122557
#        133678
#        144005
#        156907
#        167975
#        178341
#        190447
#        205189
#        216527
#
# Disc length: 2993 seconds
#
# Revision: 0
# Processed by: cddbd v1.5.2PL0 Copyright (c) Steve Scherf et al.
# Submitted via: ExactAudioCopy v0.99pb5
#
DISCID=070baf13
DTITLE=J.B. Lenoir - Classics Blues and Rhythm Series - The chronologica
DTITLE=l J.B. Lenoir 1955-1956
DYEAR=2007
DGENRE=Blues
TTITLE0=Mama your daughter is going to miss me
TTITLE1=What have I done
TTITLE2=We've got both to realise
TTITLE3=Give me one more shot
TTITLE4=Fine girls
TTITLE5=I lost my baby
TTITLE6=Natural man
TTITLE7=Don't dog your woman
TTITLE8=Let me die with the one I love
TTITLE9=If I give my love to you?
TTITLE10=Lowdown dirty shame
TTITLE11=Everybody wants to know
TTITLE12=If you love me
TTITLE13=J.B.'s rock
TTITLE14=Don't touch my head!!!
TTITLE15=When I am drinking
TTITLE16=I've been down so long
TTITLE17=What about your daughter?
TTITLE18=5 years
EXTD=
EXTT0=
EXTT1=
EXTT2=
EXTT3=
EXTT4=
EXTT5=
EXTT6=
EXTT7=
EXTT8=
EXTT9=
EXTT10=
EXTT11=
EXTT12=
EXTT13=
EXTT14=
EXTT15=
EXTT16=
EXTT17=
EXTT18=
PLAYORDER=
